<?xml version="1.0" encoding="UTF-8" standalone="no"?>
<!-- Created with Inkscape (http://www.inkscape.org/) -->

<svg
   xmlns:osb="http://www.openswatchbook.org/uri/2009/osb"
   xmlns:dc="http://purl.org/dc/elements/1.1/"
   xmlns:cc="http://creativecommons.org/ns#"
   xmlns:rdf="http://www.w3.org/1999/02/22-rdf-syntax-ns#"
   xmlns:svg="http://www.w3.org/2000/svg"
   xmlns="http://www.w3.org/2000/svg"
   xmlns:xlink="http://www.w3.org/1999/xlink"
   xmlns:sodipodi="http://sodipodi.sourceforge.net/DTD/sodipodi-0.dtd"
   xmlns:inkscape="http://www.inkscape.org/namespaces/inkscape"
   width="210mm"
   height="297mm"
   viewBox="0 0 744.09448819 1052.3622047"
   id="svg2"
   version="1.1"
   inkscape:version="0.91 r13725"
   sodipodi:docname="android_network.svg">
  <defs
     id="defs4">
    <linearGradient
       id="linearGradient4388"
       osb:paint="solid">
      <stop
         style="stop-color:#000000;stop-opacity:1;"
         offset="0"
         id="stop4390" />
    </linearGradient>
    <linearGradient
       id="linearGradient4372"
       osb:paint="solid">
      <stop
         style="stop-color:#000000;stop-opacity:1;"
         offset="0"
         id="stop4374" />
    </linearGradient>
  </defs>
  <sodipodi:namedview
     id="base"
     pagecolor="#ffffff"
     bordercolor="#666666"
     borderopacity="1.0"
     inkscape:pageopacity="0.0"
     inkscape:pageshadow="2"
     inkscape:zoom="3.959798"
     inkscape:cx="195.70719"
     inkscape:cy="856.93392"
     inkscape:document-units="px"
     inkscape:current-layer="layer1"
     showgrid="false"
     inkscape:window-width="1920"
     inkscape:window-height="1022"
     inkscape:window-x="0"
     inkscape:window-y="32"
     inkscape:window-maximized="1" />
  <metadata
     id="metadata7">
    <rdf:RDF>
      <cc:Work
         rdf:about="">
        <dc:format>image/svg+xml</dc:format>
        <dc:type
           rdf:resource="http://purl.org/dc/dcmitype/StillImage" />
        <dc:title></dc:title>
      </cc:Work>
    </rdf:RDF>
  </metadata>
  <g
     inkscape:label="Calque 1"
     inkscape:groupmode="layer"
     id="layer1">
    <g
       id="g4169"
       transform="translate(217.14286,281.32965)">
      <g
         id="g4138"
         style="fill:#a4c639">
        <use
           id="use4140"
           xlink:href="#b"
           style="stroke:#ffffff;stroke-width:14.39999962"
           x="0"
           y="0"
           width="100%"
           height="100%" />
        <use
           id="use4142"
           transform="scale(-1,1)"
           xlink:href="#a"
           x="0"
           y="0"
           width="100%"
           height="100%" />
        <g
           id="a"
           style="stroke:#ffffff;stroke-width:7.19999981">
          <rect
             id="rect4145"
             x="14"
             y="-86"
             width="13"
             height="86"
             transform="matrix(0.87461971,0.48480962,-0.48480962,0.87461971,0,0)"
             rx="6.5" />
          <rect
             x="-143"
             y="41"
             width="48"
             height="133"
             rx="24"
             id="c" />
          <use
             id="use4148"
             xlink:href="#c"
             x="85"
             y="97"
             width="100%"
             height="100%" />
        </g>
        <g
           id="b">
          <ellipse
             id="ellipse4151"
             ry="84"
             rx="91"
             cy="41"
             cx="0" />
          <rect
             id="rect4153"
             x="-91"
             y="20"
             width="182"
             height="182"
             rx="22" />
        </g>
      </g>
      <a
         id="a4254">
        <g
           style="fill:#ffffff;stroke:#ffffff;stroke-width:7.19999981"
           id="g4155">
          <path
             inkscape:connector-curvature="0"
             d="m -95,44.5 190,0"
             id="path4157" />
          <circle
             cy="0"
             cx="-42"
             r="4"
             id="circle4159" />
          <circle
             cy="0"
             cx="42"
             r="4"
             id="circle4161" />
        </g>
      </a>
    </g>
    <g
       id="g4232"
       transform="translate(-17.212251,-114.79722)">
      <g
         id="g4196" />
      <g
         id="g4198" />
      <g
         id="g4200" />
      <g
         id="g4202" />
      <g
         id="g4204" />
      <g
         id="g4206" />
      <g
         id="g4208" />
      <g
         id="g4210" />
      <g
         id="g4212" />
      <g
         id="g4214" />
      <g
         id="g4216" />
      <g
         id="g4218" />
      <g
         id="g4220" />
      <g
         id="g4222" />
      <g
         id="g4224" />
      <g
         id="g4186">
        <path
           id="path4190"
           d="m 178.90544,299.60301 c -6.91216,0 -13.44068,4.76995 -17.46356,12.75966 -1.14777,2.27924 -0.77559,5.44675 0.83082,7.07477 0.6298,0.63828 1.35575,0.94547 2.07492,0.94547 1.11539,0 2.2143,-0.73867 2.91176,-2.12414 2.68399,-5.33041 7.03757,-8.51249 11.64586,-8.51249 4.60869,0 8.96208,3.18208 11.64568,8.51221 1.14737,2.27869 3.38009,2.80753 4.98688,1.17923 1.60659,-1.62803 1.97877,-4.79553 0.8312,-7.07477 -4.02248,-7.99026 -10.55102,-12.75994 -17.46356,-12.75994 z"
           inkscape:connector-curvature="0"
           style="fill:#a4c639;fill-opacity:1;stroke:#ffffff;stroke-width:4;stroke-miterlimit:4;stroke-dasharray:none;stroke-linecap:butt;stroke-linejoin:round;stroke-opacity:1" />
        <path
           id="path4192"
           d="m 178.90544,280.5848 c -9.87412,0 -19.32526,5.98108 -25.93075,16.40952 -1.31951,2.08344 -1.19894,5.28999 0.26984,7.16222 0.68291,0.87066 1.537,1.29939 2.38818,1.29939 0.97911,-2.7e-4 1.95434,-0.56733 2.66014,-1.68192 5.25147,-8.29084 12.76455,-13.04594 20.61279,-13.04594 7.84823,0 15.36149,4.7551 20.61317,13.04566 1.3197,2.08344 3.57994,2.25449 5.04833,0.38254 1.46857,-1.87224 1.58914,-5.07879 0.26963,-7.16195 C 198.2309,286.5656 188.77936,280.5848 178.90544,280.5848 Z"
           inkscape:connector-curvature="0"
           style="fill:#a4c639;fill-opacity:1;stroke:#ffffff;stroke-width:4;stroke-miterlimit:4;stroke-dasharray:none;stroke-opacity:1" />
        <path
           id="path4194"
           d="m 213.34505,282.07533 c -9.15126,-13.22551 -21.38216,-20.50901 -34.43961,-20.50901 -13.05687,0 -25.28776,7.2835 -34.43942,20.50956 -1.38309,1.999 -1.36215,5.20968 0.0467,7.17184 0.69591,0.96912 1.6002,1.45257 2.5041,1.4523 0.92581,0 1.85142,-0.50738 2.55121,-1.51857 7.79647,-11.26722 18.2153,-17.47214 29.33739,-17.47214 11.12268,0 21.5415,6.20492 29.3372,17.47158 1.38329,1.99901 3.64663,2.02844 5.05551,0.0665 1.40886,-1.96215 1.4298,-5.1731 0.0469,-7.17211 z"
           inkscape:connector-curvature="0"
           style="fill:#a4c639;fill-opacity:1;stroke:#ffffff;stroke-width:4;stroke-miterlimit:4;stroke-dasharray:none;stroke-opacity:1" />
        <path
           id="path4190-5"
           d="m 287.42805,301.60232 c -6.91216,0 -13.44068,4.76995 -17.46356,12.75966 -1.14777,2.27924 -0.77559,5.44675 0.83082,7.07477 0.6298,0.63828 1.35575,0.94547 2.07492,0.94547 1.11539,0 2.2143,-0.73867 2.91176,-2.12414 2.68399,-5.33041 7.03757,-8.51249 11.64586,-8.51249 4.60869,0 8.96208,3.18208 11.64568,8.51221 1.14737,2.27869 3.38009,2.80753 4.98688,1.17923 1.60659,-1.62803 1.97877,-4.79553 0.8312,-7.07477 -4.02248,-7.99026 -10.55102,-12.75994 -17.46356,-12.75994 z"
           inkscape:connector-curvature="0"
           style="fill:#a4c639;fill-opacity:1;stroke:#ffffff;stroke-width:4;stroke-miterlimit:4;stroke-dasharray:none;stroke-opacity:1" />
        <path
           id="path4192-6"
           d="m 287.42805,282.58411 c -9.87412,0 -19.32526,5.98108 -25.93075,16.40952 -1.31951,2.08344 -1.19894,5.28999 0.26984,7.16222 0.68291,0.87066 1.537,1.29939 2.38818,1.29939 0.97911,-2.7e-4 1.95434,-0.56733 2.66014,-1.68192 5.25147,-8.29084 12.76455,-13.04594 20.61279,-13.04594 7.84823,0 15.36149,4.7551 20.61317,13.04566 1.3197,2.08344 3.57994,2.25449 5.04833,0.38254 1.46857,-1.87224 1.58914,-5.07879 0.26963,-7.16195 -6.60587,-10.42872 -16.05741,-16.40952 -25.93133,-16.40952 z"
           inkscape:connector-curvature="0"
           style="fill:#a4c639;fill-opacity:1;stroke:#ffffff;stroke-width:4;stroke-miterlimit:4;stroke-dasharray:none;stroke-opacity:1" />
        <path
           id="path4194-2"
           d="m 321.86766,284.07464 c -9.15126,-13.22551 -21.38216,-20.50901 -34.43961,-20.50901 -13.05687,0 -25.28776,7.2835 -34.43942,20.50956 -1.38309,1.999 -1.36215,5.20968 0.0467,7.17184 0.69591,0.96912 1.6002,1.45257 2.5041,1.4523 0.92581,0 1.85142,-0.50738 2.55121,-1.51857 7.79647,-11.26722 18.2153,-17.47214 29.33739,-17.47214 11.12268,0 21.5415,6.20492 29.3372,17.47158 1.38329,1.99901 3.64663,2.02844 5.05551,0.0665 1.40886,-1.96215 1.4298,-5.1731 0.0469,-7.17211 z"
           inkscape:connector-curvature="0"
           style="fill:#a4c639;fill-opacity:1;stroke:#ffffff;stroke-width:4;stroke-miterlimit:4;stroke-dasharray:none;stroke-opacity:1" />
      </g>
    </g>
  </g>
</svg>
