<?xml version="1.0" encoding="UTF-8"?>
<svg width="83px" height="29px" viewBox="0 0 83 29" version="1.1" xmlns="http://www.w3.org/2000/svg" xmlns:xlink="http://www.w3.org/1999/xlink">
    <!-- Generator: Sketch 46.1 (44463) - http://www.bohemiancoding.com/sketch -->
    <title>Page 1</title>
    <desc>Created with Sketch.</desc>
    <defs></defs>
    <g id="How-it-works" stroke="none" stroke-width="1" fill="none" fill-rule="evenodd">
        <g id="Desktop-HD" transform="translate(-248.000000, -3477.000000)" fill="#1AC0F8">
            <g id="Footer" transform="translate(-4.000000, 3253.000000)">
                <g id="Page-1" transform="translate(252.000000, 224.000000)">
                    <path d="M15.5054497,23 L20.5283032,23 L20.5283032,7.20597391 L15.5054497,7.20597391 L15.5054497,23 Z M21,2.64220296 C21,3.46318189 20.7019197,4.10884076 20.1068139,4.57880375 C19.5110752,5.04933047 18.8092258,5.28440592 18.000211,5.28440592 C17.1911961,5.28440592 16.4887139,5.04933047 15.8931861,4.57880375 C15.2976584,4.10884076 15,3.46318189 15,2.64220296 C15,1.82141194 15.2976584,1.17594098 15.8931861,0.70541426 C16.4887139,0.23563918 17.1911961,0 18.000211,0 C18.8092258,0 19.5110752,0.23563918 20.1068139,0.70541426 C20.7019197,1.17594098 21,1.82141194 21,2.64220296 L21,2.64220296 Z" id="Fill-1"></path>
                    <path d="M25.6625798,14.8381388 C25.6625798,16.1795972 25.9793312,17.2576167 26.6136018,18.0740218 C27.2471044,18.8900619 28.1879519,19.2981733 29.4357603,19.2981733 C29.8446575,19.2981733 30.2226474,19.2835783 30.5706899,19.2547533 C30.9179646,19.2255634 31.2043846,19.1912652 31.429566,19.1522237 L31.429566,11.2525244 C31.142954,11.0772025 30.7699553,10.9316179 30.309994,10.8150407 C29.8498407,10.6982811 29.3845041,10.6404486 28.9141764,10.6404486 C26.7464453,10.6404486 25.6625798,12.0393746 25.6625798,14.8381388 L25.6625798,14.8381388 Z M36,22.1259449 C35.5909108,22.2427045 35.1205831,22.3545383 34.5890167,22.460899 C34.0570664,22.5681719 33.50016,22.6603025 32.9173375,22.7378382 C32.334515,22.8155563 31.7409422,22.878497 31.1381548,22.9273901 C30.5347915,22.9761008 29.9571522,23 29.405045,23 C28.0752652,23 26.8896553,22.8155563 25.8466796,22.4464865 C24.8037038,22.0777816 23.9242868,21.54762 23.2086208,20.8580086 C22.4925707,20.1678499 21.9458387,19.3319241 21.5676568,18.350961 C21.188899,17.3694505 21,16.2664372 21,15.0419208 C21,13.798431 21.1635589,12.6757145 21.4908686,11.6748658 C21.8176024,10.6743819 22.2885061,9.82386116 22.9018519,9.12458059 C23.5153896,8.42475272 24.2669542,7.89057753 25.1565456,7.52114285 C26.0461369,7.15207304 27.0630047,6.9668996 28.2086847,6.9668996 C28.8421874,6.9668996 29.4096523,7.02527941 29.9110793,7.14203901 C30.4121223,7.25879861 30.9179646,7.42390399 31.429566,7.63772001 L31.429566,0.699463001 L36,0 L36,22.1259449 Z" id="Fill-3"></path>
                    <path d="M50.8501921,10.042153 C50.4907278,10.4476211 50.0070782,10.9952886 49.3979341,11.6842036 C48.789164,12.3740705 48.1349466,13.1349419 47.4365909,13.9660563 C46.7374872,14.7973611 46.0338949,15.6694031 45.3248788,16.5816112 C44.6158627,17.4942 43.9728668,18.3761407 43.3936469,19.2280044 L51,19.2280044 L51,23 L38,23 L38,20.3227683 C38.4181905,19.5933064 38.9211037,18.8071171 39.5089269,17.9661039 C40.096189,17.1243293 40.7143104,16.277986 41.3621689,15.4257415 C42.0092794,14.5742585 42.6517142,13.7482838 43.2894733,12.947056 C43.9268584,12.1458281 44.5146816,11.4213156 45.0527558,10.7721859 L38.3583421,10.7721859 L38.3583421,7 L50.8501921,7 L50.8501921,10.042153 Z" id="Fill-4"></path>
                    <path d="M66,22.108309 C65.2186091,22.326067 64.2112344,22.5293078 62.9778758,22.717473 C61.7443242,22.9054521 60.4492108,23 59.0925357,23 C57.7146323,23 56.5686953,22.8213268 55.6541457,22.4647248 C54.7388242,22.108309 54.0145565,21.6072795 53.4801847,20.9627531 C52.945427,20.3187851 52.5650562,19.5503042 52.3392653,18.658241 C52.1128954,17.7659916 52,16.7845918 52,15.7136692 L52,7 L56.5949411,7 L56.5949411,15.1785802 C56.5949411,16.6062908 56.7896616,17.6375702 57.1804535,18.271674 C57.5706665,18.9065223 58.3007237,19.2231089 59.3702392,19.2231089 C59.6985044,19.2231089 60.0483838,19.2085917 60.4185264,19.1788128 C60.7884761,19.1488478 61.1171273,19.114416 61.4050589,19.0745868 L61.4050589,7 L66,7 L66,22.108309 Z" id="Fill-5"></path>
                    <path d="M78.3374798,15.4898984 C78.3374798,14.0896422 78.0201566,12.9695134 77.3864701,12.1268459 C76.7523996,11.2853211 75.8117561,10.8644634 74.5645397,10.8644634 C74.1552638,10.8644634 73.7772787,10.8796981 73.4300084,10.9097865 C73.0815864,10.9408272 72.7953621,10.9758669 72.5705675,11.0168101 L72.5705675,19.2018247 C72.8567918,19.3844503 73.2301697,19.536416 73.6905091,19.6584838 C74.1504646,19.7801707 74.6154112,19.8411094 75.0861169,19.8411094 C77.2536282,19.8411094 78.3374798,18.3909596 78.3374798,15.4898984 M83,15.3680211 C83,16.6052663 82.8468095,17.731489 82.5402365,18.745356 C82.2332796,19.7601752 81.7829225,20.6317885 81.1899332,21.3622907 C80.5969439,22.092793 79.8609383,22.6602843 78.9813407,23.0660977 C78.102319,23.4721015 77.0898794,23.674913 75.94479,23.674913 C75.3105275,23.674913 74.7181141,23.6139743 74.16563,23.492097 C73.6137219,23.3709814 73.0815864,23.1990201 72.5705675,22.9754514 L72.5705675,29 L68,29 L68,7.91255648 C68.4090839,7.79106002 68.8790217,7.67451483 69.4113492,7.56273047 C69.9429087,7.45170784 70.5003839,7.35477728 71.083007,7.27384312 C71.666014,7.19290896 72.2584274,7.12663816 72.861975,7.0759829 C73.4649466,7.0257085 74.0431544,7 74.5952545,7 C75.9242494,7 77.1102281,7.19786022 78.1535744,7.59300937 C79.1965369,7.98892024 80.0753667,8.54708031 80.7915995,9.26672784 C81.5070644,9.98713709 82.0539814,10.8644634 82.4327344,11.8990877 C82.8107195,12.9335215 83,14.0896422 83,15.3680211" id="Fill-6"></path>
                    <polygon id="Fill-7" points="0 23 0 0 14 0 14 3.93654895 4.70688678 3.93654895 4.70688678 8.29398442 11.1547571 8.29398442 10.0627714 12.2305334 4.70688678 12.2305334 4.70688678 23"></polygon>
                </g>
            </g>
        </g>
    </g>
</svg>