<?xml version="1.0" encoding="UTF-8" standalone="no"?>
<!-- Generator: Adobe Illustrator 19.0.0, SVG Export Plug-In . SVG Version: 6.00 Build 0)  -->

<svg
   xmlns:dc="http://purl.org/dc/elements/1.1/"
   xmlns:cc="http://creativecommons.org/ns#"
   xmlns:rdf="http://www.w3.org/1999/02/22-rdf-syntax-ns#"
   xmlns:svg="http://www.w3.org/2000/svg"
   xmlns="http://www.w3.org/2000/svg"
   xmlns:sodipodi="http://sodipodi.sourceforge.net/DTD/sodipodi-0.dtd"
   xmlns:inkscape="http://www.inkscape.org/namespaces/inkscape"
   version="1.1"
   id="Layer_1"
   x="0px"
   y="0px"
   viewBox="0 0 511.999 511.999"
   style="enable-background:new 0 0 511.999 511.999;"
   xml:space="preserve"
   width="512px"
   height="512px"
   inkscape:version="0.91 r13725"
   sodipodi:docname="key_green.svg"><metadata
     id="metadata5006"><rdf:RDF><cc:Work
         rdf:about=""><dc:format>image/svg+xml</dc:format><dc:type
           rdf:resource="http://purl.org/dc/dcmitype/StillImage" /><dc:title></dc:title></cc:Work></rdf:RDF></metadata><defs
     id="defs5004" /><sodipodi:namedview
     pagecolor="#ffffff"
     bordercolor="#666666"
     borderopacity="1"
     objecttolerance="10"
     gridtolerance="10"
     guidetolerance="10"
     inkscape:pageopacity="0"
     inkscape:pageshadow="2"
     inkscape:window-width="1920"
     inkscape:window-height="1022"
     id="namedview5002"
     showgrid="false"
     inkscape:zoom="0.4609375"
     inkscape:cx="256"
     inkscape:cy="256"
     inkscape:window-x="0"
     inkscape:window-y="32"
     inkscape:window-maximized="1"
     inkscape:current-layer="g4968" /><g
     id="g4966"><g
       id="g4968"><path
         d="m 511.9995,255.9985 c 0,-71.086 -57.833,-128.918 -128.918,-128.918 -48.412,0 -90.671,26.829 -112.707,66.396 l -211.951,0 c -4.672,0 -9.127,1.969 -12.272,5.422 l -41.824,45.924 c -2.885,3.167 -4.327,7.172 -4.327,11.177 0,4.005 1.442,8.01 4.327,11.177 l 41.824,45.924 c 3.145,3.454 7.6,5.422 12.272,5.422 l 18.949,0 c 4.402,0 8.624,-1.748 11.737,-4.861 l 15.27,-15.27 14.96,14.96 c 6.482,6.482 16.992,6.482 23.474,0 l 14.96,-14.96 14.96,14.96 c 6.482,6.482 16.992,6.482 23.474,0 l 14.96,-14.96 15.27,15.27 c 3.113,3.113 7.335,4.861 11.737,4.861 l 32.2,0 c 22.037,39.566 64.294,66.396 112.707,66.396 71.085,-10e-4 128.918,-57.834 128.918,-128.92 z m -103.508,0 c 0,-15.279 12.386,-27.665 27.665,-27.665 15.279,0 27.665,12.386 27.665,27.665 0,15.279 -12.386,27.665 -27.665,27.665 -15.279,0 -27.665,-12.386 -27.665,-27.665 z"
         id="path4970"
         style="fill:#00ff00;fill-opacity:1"
         inkscape:connector-curvature="0" /></g></g><g
     id="g4972" /><g
     id="g4974" /><g
     id="g4976" /><g
     id="g4978" /><g
     id="g4980" /><g
     id="g4982" /><g
     id="g4984" /><g
     id="g4986" /><g
     id="g4988" /><g
     id="g4990" /><g
     id="g4992" /><g
     id="g4994" /><g
     id="g4996" /><g
     id="g4998" /><g
     id="g5000" /></svg>