<?xml version="1.0" encoding="UTF-8" standalone="no"?>
<!-- Generator: Adobe Illustrator 19.0.0, SVG Export Plug-In . SVG Version: 6.00 Build 0)  -->

<svg
   xmlns:dc="http://purl.org/dc/elements/1.1/"
   xmlns:cc="http://creativecommons.org/ns#"
   xmlns:rdf="http://www.w3.org/1999/02/22-rdf-syntax-ns#"
   xmlns:svg="http://www.w3.org/2000/svg"
   xmlns="http://www.w3.org/2000/svg"
   xmlns:sodipodi="http://sodipodi.sourceforge.net/DTD/sodipodi-0.dtd"
   xmlns:inkscape="http://www.inkscape.org/namespaces/inkscape"
   version="1.1"
   id="Capa_1"
   x="0px"
   y="0px"
   viewBox="0 0 487.917 487.917"
   style="enable-background:new 0 0 487.917 487.917;"
   xml:space="preserve"
   inkscape:version="0.91 r13725"
   sodipodi:docname="router.svg"><metadata
     id="metadata4262"><rdf:RDF><cc:Work
         rdf:about=""><dc:format>image/svg+xml</dc:format><dc:type
           rdf:resource="http://purl.org/dc/dcmitype/StillImage" /></cc:Work></rdf:RDF></metadata><defs
     id="defs4260" /><sodipodi:namedview
     pagecolor="#ffffff"
     bordercolor="#666666"
     borderopacity="1"
     objecttolerance="10"
     gridtolerance="10"
     guidetolerance="10"
     inkscape:pageopacity="0"
     inkscape:pageshadow="2"
     inkscape:window-width="1920"
     inkscape:window-height="1022"
     id="namedview4258"
     showgrid="false"
     inkscape:zoom="1.7277529"
     inkscape:cx="243.9585"
     inkscape:cy="243.9585"
     inkscape:window-x="0"
     inkscape:window-y="32"
     inkscape:window-maximized="1"
     inkscape:current-layer="g4222" /><g
     id="g4220"><g
       id="g4222"><path
         d="M313.2,268.421H174.8c-11.4,0-20.8,9.4-20.8,20.8s9.4,20.8,20.8,20.8h139.4c11.4,0,19.8-8.3,19.8-20.8    C334,277.821,324.6,268.421,313.2,268.421z"
         id="path4224"
         style="fill:#ffffff" /><path
         d="M383.4,175.321l-115-115c-8.3-8.3-20.8-8.3-29.1,0c-8.3,8.3-8.3,20.8,0,29.1l85.3,85.3H115.5    C52,174.821,0,226.821,0,290.321c0,51.9,34.8,96.1,82.2,110.5v12.2c0,11.4,9.4,20.8,20.8,20.8s20.8-9.4,20.8-20.8v-7.3h241.4v7.3    c0,11.4,9.4,20.8,20.8,20.8s20.8-9.4,20.8-20.8v-12.2c47.4-14.4,82-58.6,81.1-110.5C488,230.521,441.8,180.921,383.4,175.321z     M372.5,365.221h-257c-41.6,0-74.9-33.3-74.9-74.9s33.3-74.9,74.9-74.9h257c41.6,0,74.9,33.3,74.9,74.9    S414.1,365.221,372.5,365.221z"
         id="path4226"
         style="fill:#ffffff" /></g></g><g
     id="g4228" /><g
     id="g4230" /><g
     id="g4232" /><g
     id="g4234" /><g
     id="g4236" /><g
     id="g4238" /><g
     id="g4240" /><g
     id="g4242" /><g
     id="g4244" /><g
     id="g4246" /><g
     id="g4248" /><g
     id="g4250" /><g
     id="g4252" /><g
     id="g4254" /><g
     id="g4256" /></svg>